<svg xmlns="http://www.w3.org/2000/svg" width="57.996" height="50.263" viewBox="0 0 57.996 50.263">
  <path id="Icon_metro-directions-bike" data-name="Icon metro-directions-bike" d="M41.235,12.812a4.35,4.35,0,1,0-4.35-4.35A4.355,4.355,0,0,0,41.235,12.812Zm7.249,17.4A12.082,12.082,0,1,0,60.566,42.294,12.087,12.087,0,0,0,48.484,30.211Zm0,20.54a8.458,8.458,0,1,1,8.458-8.458A8.451,8.451,0,0,1,48.484,50.751ZM38.335,25.378H48.484v-4.35H40.751l-4.676-7.89a4.1,4.1,0,0,0-3.54-2.018,4.051,4.051,0,0,0-2.9,1.208l-8.941,8.929a4.1,4.1,0,0,0,.846,6.464l8.1,4.905V44.71h4.35V29.051l-5.437-4.036,5.606-5.63,4.181,5.993ZM14.653,30.211A12.082,12.082,0,1,0,26.736,42.294,12.087,12.087,0,0,0,14.653,30.211Zm0,20.54a8.458,8.458,0,1,1,8.458-8.458A8.451,8.451,0,0,1,14.653,50.751Z" transform="translate(-2.571 -4.113)" fill="#fff"/>
</svg>
