<svg xmlns="http://www.w3.org/2000/svg" width="39.884" height="48.436" viewBox="0 0 39.884 48.436">
  <path id="Icon_awesome-fire" data-name="Icon awesome-fire" d="M22.435,2.257c0-2.252-3.183-3.1-4.586-1.234-12.864,17.126,5.417,17.9,5.417,26.222,0,3.371-3.024,6.1-6.736,6.054a6.413,6.413,0,0,1-6.559-6.143V19.066c0-2.053-2.749-3.049-4.3-1.561A18.1,18.1,0,0,0,0,30.272C0,40.288,8.946,48.436,19.942,48.436s19.942-8.148,19.942-18.163C39.884,14.163,22.435,12.014,22.435,2.257Z" transform="translate(0 0)" fill="#fff"/>
</svg>
