<svg xmlns="http://www.w3.org/2000/svg" width="21.898" height="51.084" viewBox="0 0 21.898 51.084">
  <path id="Icon_ionic-ios-thermometer" data-name="Icon ionic-ios-thermometer" d="M28.335,33.34a1.829,1.829,0,0,1-.787-1.494V7.553a5.361,5.361,0,0,0-10.721,0V31.846a1.813,1.813,0,0,1-.787,1.494,10.96,10.96,0,1,0,12.295,0ZM22.21,49.353a6.73,6.73,0,0,1-2.3-13.013.919.919,0,0,0,.616-.855V19.152A1.655,1.655,0,0,1,22.176,17.5h0a1.655,1.655,0,0,1,1.654,1.654V35.485a.909.909,0,0,0,.6.855,6.788,6.788,0,0,1,4.38,6.3A6.655,6.655,0,0,1,22.21,49.353Z" transform="translate(-11.25 -2.25)" fill="#fff"/>
</svg>
